<?xml version="1.0" standalone="no"?>
<!DOCTYPE svg PUBLIC "-//W3C//DTD SVG 20010904//EN"
 "http://www.w3.org/TR/2001/REC-SVG-20010904/DTD/svg10.dtd">
<svg version="1.0" xmlns="http://www.w3.org/2000/svg"
 width="700.000000pt" height="700.000000pt" viewBox="0 0 700.000000 700.000000"
 preserveAspectRatio="xMidYMid meet">
<metadata>
Created by potrace 1.14, written by Peter Selinger 2001-2017
</metadata>
<g transform="translate(0.000000,700.000000) scale(0.100000,-0.100000)"
fill="#000000" stroke="none">
<path d="M1453 5764 c-108 -24 -183 -83 -237 -187 l-36 -68 0 -825 0 -824 700
0 700 0 36 73 c20 39 39 74 43 77 3 3 20 25 36 49 51 75 149 165 242 222 l88
54 3 710 c2 659 1 711 -15 723 -26 18 -1472 15 -1560 -4z m1465 -106 c9 -9 12
-165 12 -640 l0 -627 -72 -42 c-123 -72 -259 -227 -316 -361 -6 -15 -22 -30
-34 -33 -31 -8 -1215 -2 -1223 6 -3 4 -5 335 -5 737 0 624 3 735 15 759 8 15
15 33 15 38 0 20 83 106 128 132 25 15 64 30 86 34 23 3 343 7 711 8 510 1
674 -2 683 -11z"/>
<path d="M3922 5757 c-8 -9 -12 -247 -12 -794 -1 -688 -3 -783 -17 -794 -12
-11 -20 -10 -41 3 -64 40 -162 82 -232 100 -106 27 -289 27 -385 0 -84 -23
-193 -73 -255 -116 -56 -38 -180 -163 -180 -182 0 -7 -6 -17 -14 -21 -16 -9
-64 -98 -90 -166 -61 -162 -59 -390 5 -557 19 -48 113 -199 147 -235 71 -76
239 -195 275 -195 7 0 21 -6 32 -14 11 -7 34 -16 50 -19 17 -3 51 -11 78 -17
58 -14 273 -8 337 10 55 15 120 39 140 51 8 5 26 14 39 19 13 6 36 19 51 30
16 11 35 20 44 20 15 0 16 -71 16 -821 -1 -452 1 -823 4 -826 9 -9 1604 -2
1636 7 102 29 203 118 243 215 20 49 20 71 24 815 3 421 2 789 -2 818 l-6 52
-839 0 c-548 0 -841 3 -845 10 -3 6 -3 16 2 23 9 14 26 58 54 142 30 88 29
311 -1 410 -12 39 -26 74 -31 79 -5 6 -9 20 -9 33 l0 23 838 2 837 3 0 810 c0
782 -1 812 -20 860 -23 59 -27 65 -85 124 -57 59 -113 88 -192 101 -39 6 -356
10 -824 10 -616 0 -764 -3 -772 -13z m1578 -86 c82 -26 149 -86 210 -191 13
-21 15 -136 18 -777 l2 -752 -22 -6 c-37 -9 -1706 -1 -1715 8 -4 5 -8 393 -7
864 1 725 3 856 15 864 8 5 318 8 734 6 582 -2 729 -5 765 -16z m228 -3365 l2
-739 -30 -61 c-16 -34 -46 -78 -67 -98 -41 -39 -108 -78 -135 -78 -9 0 -20 -4
-23 -10 -9 -14 -1472 -14 -1480 0 -5 8 -10 1540 -6 1708 l1 22 868 -2 867 -3
3 -739z"/>
<path d="M1187 3133 c-10 -9 -8 -1875 1 -1891 11 -17 1808 -18 1828 -1 10 9
13 151 14 710 0 384 -2 709 -5 722 -4 13 -22 31 -43 42 -38 20 -146 100 -195
144 -37 34 -133 159 -147 191 -5 14 -18 39 -28 55 l-19 30 -700 3 c-385 1
-703 -1 -706 -5z m1369 -110 c11 -16 24 -39 31 -53 28 -57 67 -104 150 -187
61 -60 82 -75 150 -106 17 -9 36 -24 42 -35 8 -14 11 -221 11 -660 0 -529 -2
-642 -14 -651 -10 -8 -234 -11 -825 -11 -447 0 -817 2 -822 5 -10 7 -13 1708
-2 1718 3 4 289 7 634 7 l627 0 18 -27z"/>
</g>
</svg>
